HIERARCHY
ROOT SimulationBone
{
	OFFSET 0.000000 0.000000 0.000000
	CHANNELS 6 Xposition Yposition Zposition Zrotation Yrotation Xrotation 
	JOINT Hips
	{
		OFFSET 0.000000 0.000000 0.000000
		CHANNELS 6 Xposition Yposition Zposition Zrotation Yrotation Xrotation 
		JOINT LeftUpLeg
		{
			OFFSET 0.103457 1.857818 10.548502
			CHANNELS 3 Zrotation Yrotation Xrotation
			JOINT LeftLeg
			{
				OFFSET 43.500000 -0.000011 -0.000004
				CHANNELS 3 Zrotation Yrotation Xrotation
				JOINT LeftFoot
				{
					OFFSET 42.372192 -0.000004 -0.000008
					CHANNELS 3 Zrotation Yrotation Xrotation
					JOINT LeftToe
					{
						OFFSET 17.300014 0.000006 0.000001
						CHANNELS 3 Zrotation Yrotation Xrotation
						End Site
						{
							OFFSET 0.000000 0.000000 0.000000
						}
					}
				}
			}
		}
		JOINT RightUpLeg
		{
			OFFSET 0.103457 1.857817 -10.548505
			CHANNELS 3 Zrotation Yrotation Xrotation
			JOINT RightLeg
			{
				OFFSET 43.500046 -0.000004 0.000011
				CHANNELS 3 Zrotation Yrotation Xrotation
				JOINT RightFoot
				{
					OFFSET 42.372257 0.000000 0.000015
					CHANNELS 3 Zrotation Yrotation Xrotation
					JOINT RightToe
					{
						OFFSET 17.300003 -0.000000 0.000002
						CHANNELS 3 Zrotation Yrotation Xrotation
						End Site
						{
							OFFSET 0.000000 0.000000 0.000000
						}
					}
				}
			}
		}
		JOINT Spine
		{
			OFFSET 6.901961 -2.603721 -0.000001
			CHANNELS 3 Zrotation Yrotation Xrotation
			JOINT Spine1
			{
				OFFSET 12.588108 0.000002 -0.000001
				CHANNELS 3 Zrotation Yrotation Xrotation
				JOINT Spine2
				{
					OFFSET 12.343199 -0.000020 0.000006
					CHANNELS 3 Zrotation Yrotation Xrotation
					JOINT Neck
					{
						OFFSET 25.832905 0.000017 0.000000
						CHANNELS 3 Zrotation Yrotation Xrotation
						JOINT Head
						{
							OFFSET 11.766604 -0.000006 0.000004
							CHANNELS 3 Zrotation Yrotation Xrotation
							End Site
							{
								OFFSET 0.000000 0.000000 0.000000
							}
						}
					}
					JOINT LeftShoulder
					{
						OFFSET 19.745903 -1.480350 6.000100
						CHANNELS 3 Zrotation Yrotation Xrotation
						JOINT LeftArm
						{
							OFFSET 11.284130 -0.000016 -0.000016
							CHANNELS 3 Zrotation Yrotation Xrotation
							JOINT LeftForeArm
							{
								OFFSET 33.000046 0.000004 0.000031
								CHANNELS 3 Zrotation Yrotation Xrotation
								JOINT LeftHand
								{
									OFFSET 25.199999 0.000027 0.000001
									CHANNELS 3 Zrotation Yrotation Xrotation
									End Site
									{
										OFFSET 0.000000 0.000000 0.000000
									}
								}
							}
						}
					}
					JOINT RightShoulder
					{
						OFFSET 19.746094 -1.480375 -6.000080
						CHANNELS 3 Zrotation Yrotation Xrotation
						JOINT RightArm
						{
							OFFSET 11.284131 -0.000016 -0.000017
							CHANNELS 3 Zrotation Yrotation Xrotation
							JOINT RightForeArm
							{
								OFFSET 33.000095 0.000009 0.000020
								CHANNELS 3 Zrotation Yrotation Xrotation
								JOINT RightHand
								{
									OFFSET 25.199789 0.000132 0.000423
									CHANNELS 3 Zrotation Yrotation Xrotation
									End Site
									{
										OFFSET 0.000000 0.000000 0.000000
									}
								}
							}
						}
					}
				}
			}
		}
	}
}
MOTION
Frames: 11
Frame Time: 0.033333
260.895161 0.000000 -375.509732 0.000000 42.550151 0.000000 0.367019 74.705780 5.225068 100.947624 9.402573 -165.497316 171.462214 2.756501 -179.686513 -98.825816 3.424369 -6.035690 81.854551 2.881681 -5.092151 21.454545 0.003093 0.000002 140.746539 -4.735706 -168.479989 -65.709213 1.275374 -4.098893 83.841084 2.184758 -3.135115 21.454555 -0.003103 -0.000017 11.382756 1.788200 0.821620 12.786462 3.474385 1.836932 12.467914 3.485565 1.815917 10.243439 -11.097350 -4.613799 -20.172291 14.565365 -11.593895 -178.897408 -74.434794 -2.594962 -19.027355 53.226483 -0.349078 -116.454999 -1.501018 3.566249 -8.815608 -2.835973 44.169539 178.520395 69.014806 -0.196706 -11.430803 -45.847399 5.811005 -90.660263 3.928606 -2.650999 -9.024119 14.170870 -37.246678 
264.117722 0.000000 -382.079785 0.000000 45.902448 0.000000 0.190631 76.873360 5.327159 100.244961 10.315375 -169.428982 162.555797 0.733398 178.653215 -98.403936 3.322185 -7.676676 81.901447 4.316085 -3.909803 21.454555 0.003085 -0.000001 146.992747 -5.019305 -168.905100 -64.731082 1.110484 -4.739746 87.631204 2.687723 -3.271192 21.454558 -0.003109 -0.000017 11.198607 1.703164 1.360653 12.430616 3.250028 2.897783 12.112401 3.267592 2.878118 9.191865 -10.815004 -5.394109 -19.755656 15.147761 -12.644780 -175.748417 -74.116719 -5.817023 -13.938893 56.133626 6.609872 -106.763097 -2.519016 3.223520 -4.074014 -2.113745 50.016758 177.418603 69.758696 -1.318173 -15.924610 -46.956082 10.970597 -91.881023 3.265986 -2.659250 -10.078671 15.196749 -37.764860 
267.250205 0.000000 -388.628938 0.000000 48.886274 0.000000 -0.089723 79.655289 5.319168 99.288113 10.587022 -172.801196 155.158566 -1.533201 177.641049 -92.450736 2.676010 -7.547120 80.797395 4.428199 -3.158452 21.454555 0.003090 -0.000002 154.237693 -4.977094 -170.454201 -60.703607 1.232185 -4.928142 89.308275 2.888445 -2.993142 21.454563 -0.003115 -0.000019 10.987841 1.407131 1.893713 12.010811 2.609800 3.924380 11.693174 2.633573 3.908579 7.769328 -10.382233 -6.176704 -19.163404 15.445899 -13.557649 -174.297425 -73.922495 -7.302970 -6.753690 57.770430 14.182529 -98.774740 -3.559990 2.944086 -2.047444 -3.655126 54.583013 178.415101 71.015198 -0.265073 -19.444910 -48.783503 13.499410 -94.478079 2.554450 -2.725794 -10.557540 15.885490 -36.994278 
270.285042 0.000000 -395.151777 0.000000 51.601468 0.000000 -0.315715 82.655731 5.234908 98.152487 10.350262 -175.459538 150.098885 -3.046796 177.329661 -81.395371 1.401723 -7.342428 80.261266 4.445154 -2.757725 21.454557 0.003090 0.000001 161.572824 -4.389206 -172.275498 -55.048176 1.540985 -4.709285 87.867993 2.750248 -2.645179 21.454558 -0.003111 -0.000018 10.741547 0.967717 2.210123 11.505309 1.710590 4.506013 11.188119 1.737884 4.495633 6.295426 -9.909680 -6.765334 -18.976777 15.545526 -14.240506 -172.351805 -73.440120 -9.295038 2.539500 56.930091 23.177535 -93.984762 -4.086082 2.767850 -3.030908 -7.470483 51.761527 -179.700419 72.058113 1.692605 -21.612112 -50.402298 13.505916 -97.697052 1.803417 -2.817523 -10.387211 15.477195 -35.670929 
273.214665 0.000000 -401.642888 0.000000 54.121894 0.000000 -0.367902 85.560539 5.097404 96.935140 9.961675 -177.440167 148.072778 -3.843199 176.428076 -65.567125 0.732066 -7.691173 78.541834 4.586776 -3.239312 21.454551 0.003080 -0.000001 168.152468 -3.438503 -173.785148 -49.397728 2.024507 -4.181110 82.587629 2.374680 -2.157170 21.454558 -0.003098 -0.000017 10.423717 0.514790 2.319368 10.851472 0.809598 4.676844 10.534489 0.837924 4.671895 5.396159 -9.618502 -7.179984 -19.324647 15.669818 -14.809293 -169.342410 -73.036408 -12.383054 11.691312 54.222700 32.256029 -91.968484 -4.013448 2.673146 -3.887414 -12.372633 41.373656 -177.708599 72.604098 3.747612 -21.886305 -51.438011 11.321591 -101.033401 1.081112 -2.916272 -9.548016 13.574367 -34.394483 
276.031509 0.000000 -408.096858 0.000000 56.503578 0.000000 -0.278510 87.938789 4.976748 95.732244 9.410551 -179.265992 149.338029 -3.321897 173.590105 -45.785924 1.286713 -8.527622 78.067635 5.437683 -2.266592 21.454551 0.003094 0.000000 173.545968 -2.149595 -175.147852 -45.149927 2.151599 -4.049935 76.606206 3.239544 1.529301 21.454557 -0.003107 -0.000018 10.017657 0.121253 2.372339 10.023283 0.036445 4.746158 9.706372 0.065212 4.745867 5.322483 -9.791570 -7.295593 -19.683437 15.746460 -15.048823 -166.536978 -73.296925 -15.262944 20.374113 51.357087 40.636689 -91.627384 -3.611092 2.629866 -3.155962 -16.186956 30.230496 -175.407809 72.829112 6.113288 -20.120300 -51.722714 7.168885 -104.342806 0.412918 -3.016866 -8.178580 10.882446 -32.810914 
278.728005 0.000000 -414.508272 0.000000 58.790148 0.000000 0.009862 89.463547 4.894097 94.730717 10.081472 178.630650 152.148993 -4.147094 171.442762 -26.897251 0.742447 -6.775788 75.720891 3.839606 -3.586343 21.454551 0.003097 0.000001 176.487334 -2.057907 -176.501200 -45.282679 1.659899 -4.066437 71.239071 4.388567 4.556228 21.454568 -0.003116 -0.000014 9.506607 0.109334 2.495270 9.000934 0.024294 4.991398 8.684176 0.054532 4.991166 5.977905 -10.365832 -6.780696 -19.642818 15.499286 -14.432984 -163.430103 -74.343822 -18.442018 29.795143 49.268296 48.428336 -91.988885 -3.227480 2.619115 -2.253647 -16.833310 24.246512 -172.951987 73.116711 8.637102 -16.967300 -51.209388 1.467090 -107.450501 -0.200305 -3.111277 -6.749443 8.413251 -30.504212 
281.296587 0.000000 -420.871717 0.000000 61.016517 0.000000 0.367838 90.108978 4.903027 94.243016 11.126342 176.127719 154.775734 -4.766604 171.176917 -15.025450 -0.024035 -7.463527 75.241350 4.033980 -4.709503 21.454551 0.003095 -0.000001 177.245417 -2.362504 -179.042153 -49.091838 0.490180 -5.251810 65.582322 6.702208 7.348245 21.454557 -0.003105 -0.000018 9.031693 0.292717 2.539911 8.059732 0.407993 5.093985 7.742998 0.438841 5.091437 7.120220 -10.816778 -5.543510 -19.400071 14.858911 -12.813896 -157.228537 -75.803427 -24.766969 39.859369 47.820886 55.197214 -92.748990 -3.032486 2.639256 -2.364242 -13.982694 24.188761 -170.929609 73.628135 10.714710 -13.792632 -50.009405 -4.575156 -110.261595 -0.706402 -3.198844 -5.773324 6.344715 -27.823284 
283.729687 0.000000 -427.181778 0.000000 63.211423 0.000000 0.762554 89.557167 5.007550 94.628807 11.923800 173.735942 156.378711 -5.252894 170.636212 -13.765689 -0.483508 -8.988124 75.301067 5.419244 -3.588635 21.454553 0.003095 0.000001 176.817997 -2.346997 177.862388 -55.555690 -0.120469 -6.901258 64.109494 7.547845 5.999001 21.454558 -0.003111 -0.000018 8.745463 0.480166 2.384500 7.495187 0.805142 4.795108 7.178271 0.834183 4.790178 8.247050 -10.653928 -3.914555 -19.281629 13.924516 -10.615210 -147.132670 -77.000486 -35.037009 49.140855 46.330973 60.102475 -94.275721 -2.963926 2.702337 -2.805675 -9.282222 27.930792 -168.923023 74.212908 12.772806 -11.286001 -48.595508 -9.668483 -113.020991 -1.106530 -3.290085 -5.460377 3.972225 -25.603912 
286.019738 0.000000 -433.433041 0.000000 65.399192 0.000000 1.270623 88.012451 5.149536 96.173835 12.089491 172.127348 157.518984 -4.733803 168.085874 -20.290311 -0.654379 -9.244255 71.082646 7.008754 1.138826 21.454551 0.003079 -0.000001 176.053740 -1.838505 175.849572 -63.158288 -1.005997 -6.460757 67.756686 6.533636 4.744178 21.454557 -0.003107 -0.000012 8.793898 0.511513 2.038423 7.591113 0.888379 4.106016 7.273882 0.913278 4.100595 8.506139 -9.725056 -2.298470 -19.211608 12.669034 -8.308943 -138.417923 -77.281097 -43.896963 54.918730 44.914002 61.496503 -96.502288 -2.881932 2.795651 -2.755871 -5.116945 31.819539 -165.817322 74.470413 15.954275 -9.238291 -47.607699 -12.959108 -115.936601 -1.499878 -3.386658 -5.739641 0.908408 -24.082876 
288.159173 0.000000 -439.620094 0.000000 67.601007 0.000000 1.748995 86.088882 5.146353 98.558780 11.185030 171.385277 158.405857 -3.098296 166.308003 -30.496217 -1.770745 -9.035740 70.425766 10.783167 13.237772 21.454553 0.003106 0.000001 175.202890 -0.097794 174.797832 -70.379540 -2.083674 -2.863490 70.459453 4.278902 6.137159 21.454562 -0.003108 -0.000015 9.165654 0.250665 1.616152 8.324004 0.384506 3.246119 8.006452 0.404231 3.243739 7.502977 -8.344586 -0.919396 -19.105234 11.209624 -6.219277 -137.235781 -76.604055 -45.131933 54.569206 44.849600 57.973491 -98.010011 -2.760882 2.854224 -2.214151 -2.928545 33.141154 -162.107300 73.889109 19.761221 -6.864402 -47.300515 -14.668999 -118.307510 -1.900318 -3.458036 -6.299060 -1.765705 -22.491919 
